<?xml version="1.0" standalone="no"?>
<!DOCTYPE svg PUBLIC "-//W3C//DTD SVG 20010904//EN"
 "http://www.w3.org/TR/2001/REC-SVG-20010904/DTD/svg10.dtd">
<svg version="1.0" xmlns="http://www.w3.org/2000/svg"
 width="384.000000pt" height="384.000000pt" viewBox="0 0 384.000000 384.000000"
 preserveAspectRatio="xMidYMid meet">
<metadata>
Created by potrace 1.11, written by Peter Selinger 2001-2013
</metadata>
<g transform="translate(0.000000,384.000000) scale(0.100000,-0.100000)"
fill="#000000" stroke="none">
<path d="M3034 3816 c-39 -27 -40 -29 -43 -80 -3 -62 35 -105 99 -111 155 -16
163 -18 257 -61 52 -24 130 -90 170 -146 36 -50 73 -121 74 -143 1 -5 5 -18
10 -27 5 -9 11 -43 14 -75 11 -116 14 -127 47 -155 55 -47 129 -33 162 30 18
35 11 149 -13 230 -5 17 -8 32 -6 32 2 0 -3 17 -11 38 -68 164 -154 274 -284
362 -149 101 -403 158 -476 106z"/>
<path d="M1421 3660 c-78 -26 -137 -90 -157 -169 -2 -9 -12 -41 -23 -71 -20
-56 -19 -124 1 -163 5 -10 7 -21 5 -24 -3 -2 -8 5 -12 16 -3 12 -11 21 -16 21
-5 0 -9 5 -9 11 0 24 -85 122 -135 155 -40 26 -125 27 -177 2 -44 -22 -118
-92 -118 -112 0 -7 -16 -43 -35 -82 -52 -102 -45 -159 37 -284 l23 -35 -31 22
c-107 76 -273 15 -317 -117 -9 -25 -21 -58 -28 -75 -17 -43 -19 -54 -21 -112
-1 -67 11 -96 96 -223 39 -58 75 -114 79 -124 7 -18 6 -19 -10 -5 -53 45 -130
48 -205 9 -103 -54 -141 -142 -106 -250 10 -31 121 -207 138 -220 4 -3 13 -16
20 -29 7 -14 17 -30 22 -35 5 -6 58 -83 118 -171 60 -88 113 -165 118 -171 5
-5 14 -20 21 -31 6 -12 17 -28 23 -35 7 -8 18 -21 23 -31 10 -16 109 -161 222
-327 32 -47 88 -128 123 -180 36 -52 69 -100 75 -107 5 -6 41 -58 80 -115 201
-298 494 -487 855 -553 74 -14 295 -21 345 -11 11 2 43 7 70 10 54 8 207 49
252 68 115 48 217 103 275 149 20 16 39 29 42 29 5 0 72 59 136 120 52 51 131
150 177 225 63 102 138 284 157 380 4 17 9 41 12 55 19 93 24 331 10 420 -23
140 -60 257 -121 385 -52 108 -95 204 -95 211 0 3 -12 31 -26 62 -14 31 -28
64 -30 72 -2 8 -10 33 -18 55 -8 22 -29 78 -46 125 -37 99 -35 96 -45 138 -4
18 -12 35 -16 38 -5 3 -9 15 -9 28 0 12 -3 26 -7 30 -4 3 -8 12 -9 19 -1 7
-19 64 -41 127 -22 63 -51 149 -64 190 -48 151 -110 216 -214 225 -19 2 -90
-15 -115 -28 -41 -20 -81 -60 -96 -96 -16 -39 -18 -118 -3 -181 6 -25 13 -58
16 -75 7 -46 11 -68 18 -95 4 -14 8 -36 10 -50 1 -14 8 -47 15 -75 6 -27 13
-61 15 -75 2 -14 9 -50 15 -80 7 -30 13 -64 15 -75 2 -11 4 -20 5 -20 1 0 3
-9 4 -20 2 -11 6 -33 10 -50 30 -137 30 -137 -16 -166 l-42 -27 -16 22 c-17
21 -51 71 -215 311 -49 72 -93 132 -97 133 -4 2 -8 10 -8 17 0 7 -3 15 -7 17
-5 2 -50 66 -102 143 -52 77 -98 142 -103 143 -4 2 -8 10 -8 18 0 8 -4 14 -9
14 -5 0 -11 8 -14 18 -4 9 -30 51 -60 92 -29 41 -91 131 -138 200 -46 69 -88
130 -94 136 -5 7 -45 63 -88 125 -92 136 -94 138 -132 165 -57 40 -107 47
-174 24z"/>
<path d="M2508 3612 c-28 -17 -48 -44 -54 -76 -8 -43 37 -114 75 -117 35 -3
138 -15 193 -23 83 -12 243 -88 333 -157 56 -42 155 -140 182 -179 10 -14 25
-34 35 -44 10 -11 18 -25 18 -32 0 -6 8 -22 18 -35 20 -26 67 -140 78 -186 16
-75 23 -122 23 -165 1 -78 28 -123 83 -139 42 -12 88 5 115 43 16 23 20 41 18
91 -7 152 -32 274 -81 392 -14 33 -28 68 -31 78 -3 9 -9 17 -14 17 -5 0 -9 6
-9 13 0 23 -90 150 -154 215 -115 119 -258 209 -416 262 -62 21 -83 26 -140
35 -14 2 -43 7 -65 10 -81 14 -182 13 -207 -3z"/>
<path d="M286 1379 c-56 -16 -71 -44 -72 -141 -6 -442 260 -826 671 -966 52
-18 114 -34 130 -33 2 0 19 -4 37 -9 17 -6 80 -12 138 -16 86 -5 113 -3 137 9
37 19 62 69 57 111 -4 39 -54 86 -92 87 -150 3 -294 47 -422 128 -254 161
-425 423 -445 684 -3 36 -9 77 -14 89 -19 49 -71 73 -125 57z"/>
<path d="M54 839 c-42 -21 -57 -63 -50 -151 3 -44 11 -99 17 -122 6 -22 12
-45 14 -51 5 -22 18 -54 56 -130 40 -82 122 -179 204 -242 46 -35 177 -100
217 -107 15 -2 31 -7 36 -10 14 -8 63 -16 144 -22 75 -6 105 1 134 31 20 19
32 78 22 104 -11 31 -54 71 -76 72 -145 6 -185 15 -277 59 -102 49 -173 118
-222 216 -44 90 -56 146 -62 277 -2 43 -53 87 -99 86 -20 0 -46 -5 -58 -10z"/>
</g>
</svg>
