<?xml version="1.0" standalone="no"?>
<!DOCTYPE svg PUBLIC "-//W3C//DTD SVG 20010904//EN"
 "http://www.w3.org/TR/2001/REC-SVG-20010904/DTD/svg10.dtd">
<svg version="1.0" xmlns="http://www.w3.org/2000/svg"
 width="1225.000000pt" height="1225.000000pt" viewBox="0 0 1225.000000 1225.000000"
 preserveAspectRatio="xMidYMid meet">
<metadata>
Created by potrace 1.11, written by Peter Selinger 2001-2013
</metadata>
<g transform="translate(0.000000,1225.000000) scale(0.100000,-0.100000)"
fill="#000000" stroke="none">
<path d="M6092 11501 c-11 -21 -60 -110 -110 -197 -49 -88 -104 -186 -122
-219 -54 -97 -75 -135 -130 -235 -29 -52 -67 -120 -83 -150 -17 -30 -39 -68
-49 -85 -10 -16 -21 -37 -25 -45 -4 -8 -23 -44 -44 -80 -20 -36 -51 -92 -69
-125 -18 -33 -53 -95 -76 -137 -24 -43 -44 -82 -44 -88 0 -5 -4 -10 -9 -10 -5
0 -11 -8 -14 -17 -3 -10 -26 -54 -51 -98 -25 -44 -51 -91 -59 -105 -58 -107
-194 -351 -208 -375 -10 -16 -34 -61 -55 -100 -20 -38 -40 -74 -44 -80 -4 -5
-22 -37 -40 -70 -52 -95 -76 -139 -123 -222 -24 -43 -58 -103 -74 -133 -17
-30 -54 -98 -83 -150 -29 -52 -66 -120 -82 -150 -17 -30 -38 -68 -48 -85 -10
-16 -30 -52 -45 -80 -15 -27 -72 -131 -127 -230 -55 -99 -114 -205 -131 -235
-57 -104 -319 -575 -345 -620 -14 -25 -37 -67 -52 -95 -15 -27 -40 -72 -55
-100 -56 -100 -163 -291 -195 -350 -18 -33 -88 -159 -156 -281 -67 -121 -132
-238 -144 -260 -11 -21 -25 -46 -30 -54 -10 -15 -117 -209 -185 -335 -21 -38
-49 -87 -62 -107 -13 -21 -23 -39 -23 -42 0 -3 -33 -62 -153 -278 -15 -27 -38
-67 -51 -90 -52 -95 -893 -1612 -958 -1728 -38 -69 -73 -132 -78 -140 -6 -8
-19 -33 -31 -55 -12 -22 -123 -222 -247 -445 -124 -223 -235 -423 -247 -445
-12 -22 -68 -123 -124 -225 -57 -102 -117 -210 -134 -240 -37 -69 -116 -210
-127 -230 -15 -26 -364 -654 -376 -675 -6 -11 -46 -83 -89 -160 -119 -215
-185 -335 -185 -340 0 -3 2709 -5 6020 -5 3311 0 6020 2 6020 5 0 2 -13 28
-29 57 -16 29 -52 96 -81 148 -28 52 -60 109 -70 125 -9 17 -30 53 -45 80 -15
28 -61 111 -103 185 -86 156 -127 229 -157 285 -12 22 -42 76 -67 120 -64 114
-96 171 -136 245 -19 36 -61 111 -93 167 -33 56 -59 104 -59 107 0 2 -20 39
-45 80 -25 42 -45 78 -45 80 0 3 -22 43 -50 91 -27 48 -50 88 -50 90 0 2 -13
26 -28 52 -28 47 -64 113 -138 251 -21 37 -40 72 -44 77 -4 6 -22 37 -40 70
-18 33 -44 80 -58 105 -13 25 -40 74 -60 110 -19 36 -38 70 -42 75 -4 6 -22
37 -40 70 -27 50 -277 499 -356 642 -47 83 -73 131 -201 363 -72 129 -139 251
-150 270 -11 19 -32 58 -48 85 -33 59 -58 104 -110 200 -20 39 -41 75 -45 80
-4 6 -23 40 -43 77 -20 36 -91 164 -158 285 -67 120 -134 241 -149 268 -15 28
-59 107 -99 177 -39 71 -71 132 -71 138 0 5 -4 10 -10 10 -5 0 -10 4 -10 10 0
5 -28 59 -62 120 -35 62 -74 133 -88 158 -14 26 -39 72 -56 102 -171 307 -486
875 -503 906 -12 21 -26 46 -31 54 -8 12 -128 229 -280 505 -18 33 -61 110
-95 170 -34 61 -79 142 -100 180 -21 39 -91 165 -155 280 -64 116 -132 237
-150 270 -18 33 -52 94 -75 135 -23 41 -55 100 -72 130 -49 89 -84 153 -103
185 -9 17 -31 55 -47 85 -45 83 -193 349 -251 452 -12 21 -38 68 -58 105 -21
37 -56 102 -79 143 -23 41 -57 102 -75 135 -18 33 -86 155 -150 270 -64 116
-131 237 -150 270 -18 33 -54 98 -80 145 -27 47 -103 184 -171 305 -228 412
-253 455 -260 455 -4 0 -16 -17 -27 -39z"/>
</g>
</svg>
